<?xml version="1.0" encoding="utf-8"?>
<!-- Generator: Adobe Illustrator 16.0.0, SVG Export Plug-In . SVG Version: 6.00 Build 0)  -->
<!DOCTYPE svg PUBLIC "-//W3C//DTD SVG 1.1//EN" "http://www.w3.org/Graphics/SVG/1.1/DTD/svg11.dtd">
<svg version="1.1" id="Ebene_1" xmlns="http://www.w3.org/2000/svg" xmlns:xlink="http://www.w3.org/1999/xlink" x="0px" y="0px"
	 width="12.749px" height="19.216px" viewBox="0 0 12.749 19.216" enable-background="new 0 0 12.749 19.216" xml:space="preserve">
<g transform="matrix(3.0949 0 0 3.0949 -612.51 -1467.2)">
	<g>
		<path fill="#FFFFFF" d="M198.39,479.724c-0.331-0.321-0.124-0.816,0.453-1.083c0.192-0.088,0.334-0.125,0.582-0.108
			c0.15,0.009,0.321,0.104,0.321,0.104c0.043-1.108,0.12-3.208,0.16-4.244c0.061,0.003,0.1,0.004,0.187,0.007
			c-0.003,0.061-0.005,0.105-0.007,0.159c-0.002,0.053,0,0.087,0.004,0.12c0.045,0.389,0.126,0.544,0.539,1.039
			c0.523,0.625,0.669,0.995,0.646,1.478c-0.021,0.453-0.456,1.409-0.545,1.365c0.139-0.334,0.323-0.695,0.381-1
			c0.069-0.372-0.063-0.907-0.297-1.196c-0.192-0.237-0.648-0.46-0.775-0.465c0,0-0.092,2.231-0.124,3.078
			c-0.006,0.145-0.147,0.387-0.225,0.474C199.334,479.844,198.677,480.002,198.39,479.724L198.39,479.724z"/>
	</g>
</g>
</svg>
